<svg xmlns="http://www.w3.org/2000/svg" viewBox="0 0 64 64">
  <defs>
    <linearGradient id="bg" x1="8" y1="4" x2="56" y2="60" gradientUnits="userSpaceOnUse">
      <stop stop-color="#ff3844"/>
      <stop offset="1" stop-color="#b90009"/>
    </linearGradient>
  </defs>
  <rect width="64" height="64" rx="16" fill="url(#bg)"/>
  <path d="M17 15h30a4 4 0 0 1 4 4v26a4 4 0 0 1-4 4H17a4 4 0 0 1-4-4V19a4 4 0 0 1 4-4Z"
        fill="none" stroke="#fff" stroke-width="4"/>
  <path d="M22 15v34M42 15v34" stroke="#fff" stroke-width="4"/>
  <path d="M14 24h8M14 34h8M14 44h8M42 24h8M42 34h8M42 44h8"
        stroke="#fff" stroke-width="3"/>
  <path d="m29 25 10 7-10 7V25Z" fill="#fff"/>
</svg>
